<svg width="185" height="15" viewBox="0 0 185 15" fill="none" xmlns="http://www.w3.org/2000/svg">
<path d="M0.873535 0.622559H4.37744V6.60205L6.75781 6.52588L10.833 0.622559H15.1177L10.1284 7.8208L15.1177 15H10.833L7.31006 9.91553H4.37744V15H0.873535V0.622559ZM15.1558 15L20.6973 0.622559H24.4487L20.9829 9.64893H24.1821L23.5537 8.03027L25.4199 3.15527L29.9902 15H26.2197L25.439 12.9814H19.688L18.9072 15H15.1558ZM30.8091 0.622559H45.0151V3.93604L35.9697 11.6865H45.0151V15H30.8091V11.6865L39.8545 3.93604H30.8091V0.622559ZM60.9541 15V5.72607L57.7358 10.3345H53.4702L50.2329 5.70703V15H46.729V0.622559H50.9946L55.603 7.24951L60.2114 0.622559H64.4771L64.458 0.641602V15H60.9541ZM79.3877 14.981H69.4092C68.3174 14.981 67.4224 14.5557 66.7241 13.7051C66.1782 13.0449 65.9053 12.3022 65.9053 11.4771V4.14551C65.9053 3.06641 66.3242 2.17139 67.1621 1.46045C67.8223 0.901855 68.5713 0.622559 69.4092 0.622559H79.1973V3.93604H69.4092V6.14502H79.0068V9.4585H69.4092V11.6675H79.3877V14.981ZM86.2051 4.16455H80.7969V0.641602H86.2051V0.622559H89.728V0.641602H95.1553V4.16455H89.728V15H86.2051V4.16455ZM92.9844 15L98.5259 0.622559H102.277L98.8115 9.64893H102.011L101.382 8.03027L103.249 3.15527L107.819 15H104.048L103.268 12.9814H97.5166L96.7358 15H92.9844ZM108.619 0.622559H112.123V11.6865H121.911V15H112.123C111.031 15 110.136 14.5747 109.438 13.7241C108.892 13.064 108.619 12.3213 108.619 11.4961V0.622559ZM133.832 9.70605H137.335V11.4771C137.335 12.5688 136.91 13.4639 136.06 14.1621C135.399 14.708 134.657 14.981 133.832 14.981H126.576C125.484 14.981 124.589 14.5557 123.891 13.7051C123.345 13.0449 123.072 12.3022 123.072 11.4771V4.14551C123.072 3.06641 123.491 2.17139 124.329 1.46045C124.989 0.901855 125.738 0.622559 126.576 0.622559H133.832C134.911 0.622559 135.806 1.04785 136.517 1.89844C137.062 2.55859 137.335 3.30762 137.335 4.14551V5.89746H133.832V3.93604H126.576V11.6675H133.832V9.70605ZM142.058 3.93604V11.6675H149.313V3.93604H142.058ZM138.554 11.4771V4.14551C138.554 3.06641 138.973 2.17139 139.811 1.46045C140.471 0.901855 141.22 0.622559 142.058 0.622559H149.313C150.393 0.622559 151.288 1.04785 151.999 1.89844C152.544 2.55859 152.817 3.30762 152.817 4.14551V11.4771C152.817 12.5688 152.392 13.4639 151.542 14.1621C150.881 14.708 150.139 14.981 149.313 14.981H142.058C140.966 14.981 140.071 14.5557 139.373 13.7051C138.827 13.0449 138.554 12.3022 138.554 11.4771ZM154.455 3.93604V0.622559H164.967C166.046 0.622559 166.941 1.04785 167.652 1.89844C168.198 2.55859 168.471 3.30762 168.471 4.14551V6.39258C168.471 7.47168 168.052 8.3667 167.214 9.07764C166.554 9.63623 165.805 9.91553 164.967 9.91553L168.49 15H164.224L160.701 9.91553H157.769V15H154.265V6.60205H164.967V3.93604H154.455ZM170.013 3.93604V0.622559H180.525C181.604 0.622559 182.499 1.04785 183.21 1.89844C183.756 2.55859 184.029 3.30762 184.029 4.14551V11.4771C184.029 12.5688 183.604 13.4639 182.753 14.1621C182.093 14.708 181.35 14.981 180.525 14.981H173.327V15H169.823V5.89746H173.327V11.6675H180.525V3.93604H170.013Z" fill="black"/>
</svg>
